<svg width="18" height="18" viewBox="0 0 18 18" fill="none" xmlns="http://www.w3.org/2000/svg">
<path d="M9 1.125C4.65117 1.125 1.125 4.65117 1.125 9C1.125 13.3488 4.65117 16.875 9 16.875C13.3488 16.875 16.875 13.3488 16.875 9C16.875 4.65117 13.3488 1.125 9 1.125ZM10.1162 7.73086C10.1936 7.73086 10.2568 7.79414 10.2568 7.87148V8.34961C10.2568 8.42695 10.1936 8.49023 10.1162 8.49023H7.72559C7.72031 8.56758 7.72031 8.6502 7.72031 8.73281V9.36562H10.1145C10.1918 9.36562 10.2551 9.42891 10.2551 9.50625V9.98438C10.2551 10.0617 10.1918 10.125 10.1145 10.125H7.82051C8.08945 11.2148 8.89805 11.8582 10.1021 11.8582C10.452 11.8582 10.7543 11.8371 11.0127 11.7861C11.0988 11.7686 11.1797 11.8354 11.1797 11.9232V12.6756C11.1797 12.7424 11.1322 12.7986 11.0672 12.8127C10.7877 12.8725 10.4643 12.9023 10.0951 12.9023C8.16504 12.9023 6.87832 11.8687 6.57598 10.125H6.04688C5.96953 10.125 5.90625 10.0617 5.90625 9.98438V9.50625C5.90625 9.42891 5.96953 9.36562 6.04688 9.36562H6.50566V8.71699C6.50566 8.63965 6.50566 8.5623 6.51094 8.49199H6.04688C5.96953 8.49199 5.90625 8.42871 5.90625 8.35137V7.87324C5.90625 7.7959 5.96953 7.73262 6.04688 7.73262H6.6041C6.95039 6.07676 8.22129 5.09766 10.0951 5.09766C10.4625 5.09766 10.7877 5.13105 11.0672 5.19258C11.1322 5.20664 11.1779 5.26289 11.1779 5.32969V6.08203H11.1797C11.1797 6.17168 11.0988 6.23672 11.0109 6.21914C10.7525 6.16816 10.452 6.1418 10.1021 6.1418C8.95254 6.1418 8.16152 6.73066 7.85918 7.73086H10.1162Z" fill="white"/>
</svg>
