<svg width="129" height="80" viewBox="0 0 129 80" fill="none" xmlns="http://www.w3.org/2000/svg">
<path d="M128.487 38.9964L89.8764 8.33455C75.8876 -2.77423 53.1174 -2.78214 39.1286 8.33455L0.527689 38.9964C0.477907 39.0359 0.438081 39.0833 0.398256 39.1308C0.368387 39.1624 0.338517 39.1861 0.308648 39.2177C0.258866 39.2731 0.228997 39.3284 0.199128 39.3838C0.179215 39.4075 0.159302 39.4312 0.149346 39.4628C0.119477 39.5261 0.0995639 39.5894 0.0796511 39.6526C0.0796511 39.6763 0.0597384 39.7 0.049782 39.7317C0.0298692 39.8107 0.0199128 39.8977 0.0199128 39.9847C0.0199128 39.9926 0.0199128 40.0005 0.0199128 40.0084H0C0 40.1033 0.00995639 40.1903 0.0298692 40.2851C0.0298692 40.3168 0.0597384 40.3484 0.0696948 40.38C0.0896075 40.4354 0.10952 40.4907 0.129433 40.5461C0.149346 40.5935 0.189171 40.633 0.209084 40.6726C0.238953 40.7121 0.258866 40.7516 0.288735 40.7912C0.35843 40.8702 0.428125 40.9414 0.517732 41.0125L39.1187 71.6664C46.118 77.2248 55.3078 80 64.4975 80C73.6873 80 82.877 77.2248 89.8764 71.6664L128.477 41.0125C129.174 40.4591 129.174 39.5577 128.477 39.0043L128.487 38.9964ZM64.5075 49.5042L52.5399 40.0084L64.5075 30.5047L76.4651 40.0084L64.5075 49.5042ZM41.6675 10.3507C53.8342 0.680957 73.3786 0.356786 86.0432 9.37031L49.9811 38.008C49.553 37.6997 49.1248 37.4071 48.6768 37.1146C42.2748 32.9241 34.3097 30.6391 25.8966 30.6391C21.8244 30.6391 17.8618 31.1767 14.1281 32.2046L41.6675 10.3507ZM87.3474 69.6503C75.1807 79.3121 55.6363 79.6442 42.9618 70.6307L79.0239 41.993C79.0239 41.993 79.0339 42.0009 79.0438 42.0088C79.6113 42.412 80.1888 42.7994 80.7762 43.171C80.8957 43.2501 81.0152 43.3213 81.1446 43.4003C81.732 43.764 82.3195 44.104 82.9268 44.4361C88.8309 47.6383 95.7905 49.3619 103.098 49.3619C107.171 49.3619 111.133 48.8243 114.867 47.7964L87.3375 69.6582L87.3474 69.6503Z" fill="#2A2A2A"/>
</svg>
