<svg width="18" height="18" viewBox="0 0 18 18" fill="none" xmlns="http://www.w3.org/2000/svg">
<g clip-path="url(#clip0_2830_28345)">
<path fill-rule="evenodd" clip-rule="evenodd" d="M9 1.5C4.85786 1.5 1.5 4.85786 1.5 9C1.5 13.1421 4.85786 16.5 9 16.5C13.1421 16.5 16.5 13.1421 16.5 9C16.5 4.85786 13.1421 1.5 9 1.5ZM11.5669 5.56811C11.9001 5.81425 11.9707 6.28385 11.7245 6.61701L10.5181 8.24992H11.25C11.6642 8.24992 12 8.58577 12 8.99992C12 9.41415 11.6642 9.74992 11.25 9.74992H9.75V10.4999H11.25C11.6642 10.4999 12 10.8358 12 11.2499C12 11.6641 11.6642 11.9999 11.25 11.9999H9.75V12.7499C9.75 13.1641 9.41422 13.4999 9 13.4999C8.58577 13.4999 8.25 13.1641 8.25 12.7499V11.9999H6.75C6.33579 11.9999 6 11.6641 6 11.2499C6 10.8358 6.33579 10.4999 6.75 10.4999H8.25V9.74992H6.75C6.33579 9.74992 6 9.41415 6 8.99992C6 8.58577 6.33579 8.24992 6.75 8.24992H7.48186L6.27545 6.61701C6.02932 6.28385 6.09986 5.81425 6.43302 5.56811C6.76617 5.32198 7.23577 5.39253 7.48191 5.72568L9 7.7805L10.5181 5.72568C10.7642 5.39253 11.2338 5.32198 11.5669 5.56811Z" fill="white"/>
</g>
<defs>
<clipPath id="clip0_2830_28345">
<rect width="18" height="18" fill="white"/>
</clipPath>
</defs>
</svg>
