<svg width="18" height="18" viewBox="0 0 18 18" fill="none" xmlns="http://www.w3.org/2000/svg">
<path fill-rule="evenodd" clip-rule="evenodd" d="M8.99844 14.8271C9.37203 14.8271 9.67289 15.128 9.67289 15.5016V16.424C9.67289 16.7976 9.37203 17.0984 8.99844 17.0984C8.62485 17.0984 8.32399 16.7976 8.32399 16.424V15.5016C8.32399 15.128 8.62485 14.8271 8.99844 14.8271ZM8.99844 3.16974C8.62485 3.16974 8.32399 2.86889 8.32399 2.49529V1.57289C8.32399 1.19929 8.62485 0.898438 8.99844 0.898438C9.37203 0.898438 9.67289 1.19929 9.67289 1.57289V2.49529C9.67289 2.86889 9.37203 3.16974 8.99844 3.16974ZM16.424 8.32399C16.7976 8.32399 17.0984 8.62485 17.0984 8.99844C17.0984 9.37203 16.7976 9.67289 16.424 9.67289H15.5016C15.128 9.67289 14.8271 9.37203 14.8271 8.99844C14.8271 8.62485 15.128 8.32399 15.5016 8.32399H16.424ZM2.49529 8.32399C2.86889 8.32399 3.16974 8.62485 3.16974 8.99844C3.16974 9.37203 2.86889 9.67289 2.49529 9.67289H1.57289C1.19929 9.67289 0.898438 9.37203 0.898438 8.99844C0.898438 8.62485 1.19929 8.32399 1.57289 8.32399H2.49529ZM14.0733 4.87901C13.8088 5.14019 13.3824 5.1435 13.1179 4.87901C12.8534 4.61452 12.8534 4.18803 13.1179 3.92354L13.7692 3.27223C14.0337 3.00774 14.4602 3.00774 14.7246 3.27223C14.9891 3.53672 14.9891 3.96321 14.7246 4.2277L14.0733 4.87901ZM3.92354 13.1179C4.18803 12.8567 4.61452 12.8534 4.87901 13.1179C5.1435 13.3824 5.1435 13.8088 4.87901 14.0733L4.2277 14.7246C3.96321 14.9891 3.53672 14.9891 3.27223 14.7246C3.00774 14.4602 3.00774 14.0337 3.27223 13.7692L3.92354 13.1179ZM14.0733 13.1179L14.7246 13.7692C14.9891 14.0337 14.9891 14.4602 14.7246 14.7246C14.4602 14.9891 14.0337 14.9891 13.7692 14.7246L13.1179 14.0733C12.8534 13.8088 12.8534 13.3824 13.1179 13.1179C13.3824 12.8534 13.8088 12.8534 14.0733 13.1179ZM3.92354 4.87901L3.27223 4.2277C3.00774 3.96321 3.00774 3.53672 3.27223 3.27223C3.53672 3.00774 3.96321 3.00774 4.2277 3.27223L4.87901 3.92354C5.1435 4.18803 5.1435 4.61452 4.87901 4.87901C4.61452 5.1435 4.18803 5.1435 3.92354 4.87901ZM8.99844 3.92354C11.7954 3.92354 14.0733 6.20146 14.0733 8.99844C14.0733 11.7987 11.7954 14.0733 8.99844 14.0733C6.19815 14.0733 3.92354 11.7954 3.92354 8.99844C3.92354 6.19815 6.20146 3.92354 8.99844 3.92354ZM8.99844 12.7211C11.0515 12.7211 12.7211 11.0515 12.7211 8.99844C12.7211 6.94534 11.0515 5.27574 8.99844 5.27574C6.94534 5.27574 5.27574 6.94534 5.27574 8.99844C5.27574 11.0515 6.94534 12.7211 8.99844 12.7211Z" fill="white"/>
</svg>
