<svg width="18" height="18" viewBox="0 0 18 18" fill="none" xmlns="http://www.w3.org/2000/svg">
<path d="M9 1.6875C7.55373 1.6875 6.13993 2.11637 4.9374 2.91988C3.73486 3.72339 2.7976 4.86544 2.24413 6.20163C1.69067 7.53781 1.54586 9.00811 1.82801 10.4266C2.11017 11.8451 2.80661 13.148 3.82928 14.1707C4.85196 15.1934 6.15492 15.8898 7.57341 16.172C8.99189 16.4541 10.4622 16.3093 11.7984 15.7559C13.1346 15.2024 14.2766 14.2651 15.0801 13.0626C15.8836 11.8601 16.3125 10.4463 16.3125 9C16.3105 7.06123 15.5394 5.20246 14.1685 3.83154C12.7975 2.46063 10.9388 1.68955 9 1.6875ZM7.14586 11.8125H10.8541C10.4766 13.102 9.84375 14.2643 9 15.1798C8.15625 14.2643 7.52344 13.102 7.14586 11.8125ZM6.89063 10.6875C6.70407 9.57023 6.70407 8.42977 6.89063 7.3125H11.1094C11.2959 8.42977 11.2959 9.57023 11.1094 10.6875H6.89063ZM2.8125 9C2.81201 8.42937 2.89081 7.86144 3.04664 7.3125H5.75086C5.58305 8.43124 5.58305 9.56876 5.75086 10.6875H3.04664C2.89081 10.1386 2.81201 9.57063 2.8125 9ZM10.8541 6.1875H7.14586C7.52344 4.89797 8.15625 3.7357 9 2.82023C9.84375 3.7357 10.4766 4.89797 10.8541 6.1875ZM12.2491 7.3125H14.9534C15.2656 8.41584 15.2656 9.58416 14.9534 10.6875H12.2491C12.417 9.56876 12.417 8.43124 12.2491 7.3125ZM14.5104 6.1875H12.0192C11.7322 5.05794 11.2501 3.98717 10.5947 3.02344C11.432 3.24845 12.213 3.64621 12.8873 4.19114C13.5617 4.73606 14.1146 5.4161 14.5104 6.1875ZM7.40532 3.02344C6.74993 3.98717 6.26785 5.05794 5.98078 6.1875H3.48961C3.88542 5.4161 4.43829 4.73606 5.11267 4.19114C5.78704 3.64621 6.568 3.24845 7.40532 3.02344ZM3.48961 11.8125H5.98078C6.26785 12.9421 6.74993 14.0128 7.40532 14.9766C6.568 14.7515 5.78704 14.3538 5.11267 13.8089C4.43829 13.2639 3.88542 12.5839 3.48961 11.8125ZM10.5947 14.9766C11.2501 14.0128 11.7322 12.9421 12.0192 11.8125H14.5104C14.1146 12.5839 13.5617 13.2639 12.8873 13.8089C12.213 14.3538 11.432 14.7515 10.5947 14.9766Z" fill="white"/>
</svg>
